PathFileType	4	(X/Y/Z)	D:\TRACE\spotREDO_2-26-24\spot_Both_Motion_3_10-v60.trc
DataRate	CameraRate	NumFrames	NumMarkers	Units	OrigDataRate	OrigDataStartFrame	OrigNumFrames
100.00	100.00	      24	9	mm	100.00	876	      7000
Frame#	Time	front left toe			Front right toe			aft left toe			aft right toe			Arm			FL body			FR body			AL Body			AR Body			
		X1	Y1	Z1	X2	Y2	Z2	X3	Y3	Z3	X4	Y4	Z4	X5	Y5	Z5	X6	Y6	Z6	X7	Y7	Z7	X8	Y8	Z8	X9	Y9	Z9	

876	8.750	-174.03232	-2.40103	-454.50363	242.99710	-4.18741	-520.94952	-154.75572	23.75090	162.65964	232.09160	31.33022	135.63721	51.68816	664.35803	-783.17474	-75.79620	542.18408	-522.86951	79.58433	545.86053	-527.84320	-53.73979	575.25433	360.43890	93.49096	568.89893	358.88681	
877	8.760	-173.87706	-2.53945	-454.52966	243.28088	-4.75549	-521.20178	-154.64323	23.83695	162.62758	232.26456	31.40168	135.61145	50.14824	662.29834	-785.22980	-74.88403	541.47095	-522.78052	80.45557	544.75256	-527.87421	-53.14986	575.70526	360.33093	93.48084	569.15173	358.81375	
878	8.770	-173.75449	-2.70074	-454.48523	243.66583	-4.38458	-520.84326	-154.48187	24.06753	162.67136	232.42097	31.38309	135.48055	49.26260	660.52490	-786.70056	-74.58551	540.53448	-522.78156	80.69286	543.85620	-528.03796	-52.13928	576.17291	360.21906	94.08852	569.33655	358.62012	
879	8.780	-173.56190	-2.90572	-454.28137	243.84145	-4.63781	-521.04913	-154.10088	24.43981	162.64203	232.56952	31.25434	135.22736	48.74022	659.47900	-788.26068	-74.44572	539.60065	-522.75952	81.00095	542.78387	-528.29291	-50.35711	576.63751	360.15198	95.96238	569.86133	358.15555	
880	8.790	-173.60538	-3.05672	-454.16055	243.72214	-4.80176	-521.32526	-153.45819	24.77145	162.66264	232.93958	31.07741	135.08707	49.11774	659.12823	-789.24542	-74.66437	538.61536	-522.79810	80.72205	541.62952	-528.64276	-48.84523	577.20398	360.04108	97.37931	570.40253	357.73380	
881	8.800	-173.57967	-3.35377	-454.08005	243.61324	-4.84546	-521.56445	-153.07387	25.01638	162.51965	233.34541	30.82438	135.02557	50.15204	658.99286	-789.30304	-74.84106	537.63171	-522.78345	80.42639	540.70520	-528.97809	-46.89461	577.68060	359.93134	100.71336	570.68127	357.38635	
882	8.810	-173.67090	-3.38342	-453.79498	243.42392	-4.80989	-521.74829	-152.73334	24.98237	162.57310	233.76794	30.58872	134.89194	52.05372	659.33197	-789.34851	-75.22531	536.91937	-522.71655	80.04639	539.81421	-529.41132	-45.01220	577.95422	359.95544	102.15102	570.70319	357.03705	
883	8.820	-173.42659	-3.74576	-453.78122	243.53624	-4.82560	-521.83972	-152.44876	25.01479	162.66414	234.24994	30.55829	134.79211	53.47041	659.87897	-789.07697	-75.27405	536.28925	-522.71777	80.23737	538.89044	-529.18555	-43.42032	578.14398	359.69995	103.54503	570.84863	356.56396	
884	8.830	-173.11327	-3.94079	-453.81497	243.72197	-4.88978	-521.84851	-152.11360	25.15187	162.79648	234.57358	30.50801	134.68648	54.60130	660.97809	-788.53888	-74.95390	535.92047	-522.67694	80.46329	538.30865	-529.29535	-42.15814	578.10413	359.66791	105.32606	570.63928	356.32724	
885	8.840	-172.86406	-3.97012	-453.83243	243.93433	-5.12829	-521.78949	-151.85704	25.33383	162.76265	234.72380	30.46784	134.67648	56.57543	661.66296	-788.31555	-74.34107	535.80609	-522.79321	81.27686	538.02136	-529.25562	-40.92501	577.90649	359.64584	106.07035	570.28113	356.25989	
886	8.850	-172.46510	-3.84686	-454.01022	244.29024	-5.41318	-521.67377	-151.73416	25.22611	162.77010	235.05043	30.49620	134.75844	57.69390	662.48700	-788.03064	-73.21975	535.81213	-522.85809	82.35198	537.87817	-529.30090	-40.37550	577.65924	359.59265	106.77836	569.93799	356.28702	
887	8.860	-171.87076	-3.74375	-454.06323	244.98100	-5.55739	-521.66882	-151.58968	25.03496	162.66914	235.21579	30.47712	134.82941	58.44643	663.05396	-787.40936	-71.44427	535.76941	-522.89819	83.75047	538.05267	-529.70959	-40.10234	577.35095	359.55307	107.47621	569.88104	356.78183	
888	8.870	-171.59190	-3.57145	-454.14441	245.27092	-5.89390	-521.56091	-151.40340	24.93378	162.59950	235.19940	30.48985	134.84920	58.70466	663.63019	-787.09418	-69.80044	535.91382	-522.95459	85.58291	538.10486	-529.34711	-40.01622	577.13007	359.58664	107.11683	569.35663	356.69604	
889	8.880	-171.13643	-3.34999	-454.37210	245.78119	-6.02382	-521.21948	-151.23576	24.92403	162.46103	235.45724	30.62449	134.94351	58.69081	664.03394	-786.89569	-67.89404	536.28674	-522.96771	87.55680	538.14105	-529.04272	-39.91563	576.90094	359.70764	107.41608	568.80530	357.27545	
890	8.890	-170.58005	-3.18179	-454.54556	246.33736	-6.15131	-520.86865	-151.13286	24.93258	162.42377	235.69241	30.76302	135.12900	57.50325	664.58893	-786.68408	-65.92749	536.35529	-522.90167	89.43143	537.96503	-528.20129	-39.64235	576.71106	359.87234	107.68483	568.45624	357.66937	
891	8.900	-169.99261	-3.14705	-454.65427	247.00671	-6.51250	-520.88959	-151.01909	24.95481	162.35135	236.00349	30.75262	135.18680	56.68492	664.62750	-786.85852	-64.25381	536.73895	-522.89667	91.01322	538.19501	-528.28912	-39.23027	576.53656	360.03174	107.80453	568.37695	357.95734	
892	8.910	-169.83687	-3.16762	-454.72794	247.44864	-6.77830	-520.90710	-150.82608	25.08333	162.32758	236.16316	30.73421	135.22284	55.79049	664.34900	-786.83386	-62.74313	536.52710	-522.40979	92.67638	538.16278	-527.87677	-38.58379	576.49164	360.32455	108.50657	568.25427	358.46201	
893	8.920	-169.70146	-3.22007	-454.71484	247.92555	-6.37620	-520.44415	-150.49330	25.11116	162.34447	236.24054	30.63840	135.13109	55.13729	663.97003	-786.70831	-61.71790	536.66833	-522.07141	93.91800	538.11224	-527.50708	-37.37448	576.37067	360.65717	109.46735	568.09735	358.74478	
894	8.930	-169.48549	-3.37538	-454.78845	248.34053	-6.31956	-520.44623	-149.97319	25.22058	162.38055	236.55936	30.66513	135.10057	54.71962	663.82477	-786.62537	-60.39393	536.55548	-521.81036	95.01109	537.99622	-526.88055	-35.93861	576.31750	361.06686	111.12440	567.84985	359.03513	
895	8.940	-169.34821	-3.52749	-454.81363	247.97351	-7.11835	-521.14905	-149.73605	25.39105	162.33037	236.89412	30.80725	135.18599	54.42919	663.62720	-786.55194	-59.68440	536.73492	-521.47723	95.76329	538.05292	-526.95105	-34.52585	576.28351	361.49838	113.05316	567.78650	359.80267	
896	8.950	-169.21367	-3.64057	-454.79373	248.01878	-7.15536	-521.15192	-149.38583	25.75886	162.33798	237.21439	30.89772	135.22557	54.42366	663.43573	-786.53802	-59.06443	536.64404	-520.96698	96.39660	538.01599	-526.69067	-32.76303	576.20551	361.89740	114.37088	567.64661	359.71243	
897	8.960	-168.98958	-3.80033	-454.79108	248.10010	-7.26837	-521.30719	-148.85088	25.94552	162.35754	237.66576	30.66253	135.16226	54.89059	663.10364	-786.38269	-58.29062	536.56750	-520.47729	96.91842	537.81281	-526.45587	-31.00987	576.27350	362.35223	116.08411	567.44812	359.87082	
898	8.970	-168.80093	-3.98200	-454.70798	248.22514	-7.41048	-521.52325	-148.29138	26.05543	162.42365	238.33028	30.47373	135.18091	55.62844	662.73468	-786.07281	-57.75824	536.43994	-519.95776	97.53721	537.53320	-526.12811	-29.22067	576.20062	362.81564	118.03407	567.48657	360.18365	
899	8.980	-168.43056	-4.26547	-454.53253	248.34041	-7.59828	-521.63837	-148.24017	26.36977	162.29875	238.69933	30.28000	134.98453	56.23336	662.53784	-785.76172	-57.14560	536.20862	-519.32764	98.35648	537.01031	-525.22931	-27.22331	576.28082	363.37421	119.67460	567.58435	360.58627	
